<svg width="24" height="24" viewBox="0 0 24 24" fill="none" xmlns="http://www.w3.org/2000/svg">
<path d="M13.945 13C13.6964 13.0063 13.4597 13.1079 13.2838 13.2838C13.1079 13.4597 13.0063 13.6964 13 13.945V20.275C12.996 20.4049 13.0181 20.5343 13.065 20.6554C13.112 20.7766 13.1828 20.8871 13.2733 20.9804C13.3638 21.0736 13.4721 21.1478 13.5917 21.1984C13.7114 21.249 13.8401 21.2751 13.97 21.275H20.275C20.5402 21.275 20.7946 21.1696 20.9821 20.9821C21.1696 20.7946 21.275 20.5402 21.275 20.275V13.945C21.2751 13.8151 21.249 13.6864 21.1984 13.5667C21.1478 13.447 21.0736 13.3388 20.9804 13.2483C20.8871 13.1578 20.7766 13.087 20.6554 13.04C20.5343 12.9931 20.4049 12.971 20.275 12.975L13.945 13ZM3.725 2.75C3.46414 2.75652 3.21616 2.86475 3.034 3.05159C2.85184 3.23842 2.74992 3.48906 2.75 3.75V10.055C2.74994 10.1849 2.77599 10.3136 2.8266 10.4333C2.87721 10.553 2.95136 10.6612 3.04463 10.7517C3.1379 10.8422 3.24841 10.913 3.36958 10.96C3.49075 11.0069 3.62012 11.029 3.75 11.025H10.055C10.3123 11.025 10.559 10.9228 10.7409 10.7409C10.9228 10.559 11.025 10.3123 11.025 10.055V3.725C11.0257 3.5972 11.0011 3.47052 10.9526 3.35226C10.9042 3.234 10.8328 3.12648 10.7427 3.03587C10.6525 2.94527 10.5454 2.87337 10.4274 2.82431C10.3093 2.77525 10.1828 2.75 10.055 2.75H3.725Z" stroke="#6A6A6A" stroke-linecap="round" stroke-linejoin="round"/>
<path d="M19.7901 2.75H14.4351C13.6288 2.75 12.9751 3.40366 12.9751 4.21V9.565C12.9751 10.3713 13.6288 11.025 14.4351 11.025H19.7901C20.5964 11.025 21.2501 10.3713 21.2501 9.565V4.21C21.2501 3.40366 20.5964 2.75 19.7901 2.75Z" stroke="#6A6A6A" stroke-linecap="round" stroke-linejoin="round"/>
<path d="M10.05 12.975H3.725C3.18652 12.975 2.75 13.4115 2.75 13.95V20.275C2.75 20.8135 3.18652 21.25 3.725 21.25H10.05C10.5885 21.25 11.025 20.8135 11.025 20.275V13.95C11.025 13.4115 10.5885 12.975 10.05 12.975Z" stroke="#6A6A6A" stroke-linecap="round" stroke-linejoin="round"/>
<path d="M6.88996 4.21001V9.56501M4.20996 6.89001H9.56496M14.435 15.65H19.79M14.435 18.57H19.79" stroke="#6A6A6A" stroke-linecap="round" stroke-linejoin="round"/>
</svg>
