<svg width="26" height="26" viewBox="0 0 26 26" fill="none" xmlns="http://www.w3.org/2000/svg">
<g clip-path="url(#clip0_27_12472)">
<path d="M23.4795 20.0994C22.7831 19.4786 22.1734 18.7668 21.6668 17.9833C21.1137 16.9018 20.7822 15.7208 20.6918 14.5094V10.9416C20.6966 9.03903 20.0064 7.20015 18.751 5.77051C17.4955 4.34087 15.7613 3.41888 13.874 3.17775V2.24609C13.874 1.99038 13.7724 1.74514 13.5916 1.56432C13.4108 1.3835 13.1655 1.28192 12.9098 1.28192C12.6541 1.28192 12.4089 1.3835 12.2281 1.56432C12.0472 1.74514 11.9457 1.99038 11.9457 2.24609V3.1922C10.0753 3.4507 8.36197 4.37827 7.12304 5.80311C5.88411 7.22795 5.20352 9.0535 5.20733 10.9416V14.5094C5.11687 15.7208 4.78539 16.9018 4.23233 17.9833C3.73463 18.765 3.13469 19.4767 2.44844 20.0994C2.3714 20.1671 2.30966 20.2504 2.26732 20.3438C2.22498 20.4372 2.20301 20.5385 2.20288 20.6411V21.6233C2.20288 21.8149 2.27897 21.9986 2.41441 22.134C2.54986 22.2694 2.73356 22.3455 2.9251 22.3455H23.0029C23.1944 22.3455 23.3781 22.2694 23.5136 22.134C23.649 21.9986 23.7251 21.8149 23.7251 21.6233V20.6411C23.725 20.5385 23.703 20.4372 23.6607 20.3438C23.6183 20.2504 23.5566 20.1671 23.4795 20.0994ZM3.7051 20.9011C4.37707 20.252 4.9687 19.5245 5.46733 18.7344C6.16399 17.4283 6.57047 15.9871 6.65899 14.5094V10.9416C6.63035 10.0952 6.77233 9.2517 7.07647 8.46129C7.38061 7.67089 7.8407 6.94977 8.42934 6.34087C9.01797 5.73198 9.72312 5.24776 10.5028 4.91706C11.2825 4.58636 12.1207 4.41594 12.9676 4.41594C13.8145 4.41594 14.6528 4.58636 15.4324 4.91706C16.2121 5.24776 16.9172 5.73198 17.5059 6.34087C18.0945 6.94977 18.5546 7.67089 18.8587 8.46129C19.1629 9.2517 19.3049 10.0952 19.2762 10.9416V14.5094C19.3647 15.9871 19.7712 17.4283 20.4679 18.7344C20.9665 19.5245 21.5581 20.252 22.2301 20.9011H3.7051Z" fill="white"/>
<path d="M13 24.7577C13.455 24.7473 13.8916 24.5762 14.2326 24.2749C14.5736 23.9735 14.797 23.5613 14.8633 23.1111H11.0645C11.1327 23.5735 11.3666 23.9955 11.7226 24.2984C12.0787 24.6013 12.5326 24.7645 13 24.7577Z" fill="white"/>
</g>
<defs>
<clipPath id="clip0_27_12472">
<rect width="26" height="26" fill="white"/>
</clipPath>
</defs>
</svg>
