<?xml version="1.0" encoding="utf-8"?>
<!-- Generator: Adobe Illustrator 17.0.0, SVG Export Plug-In . SVG Version: 6.00 Build 0)  -->
<!DOCTYPE svg PUBLIC "-//W3C//DTD SVG 1.1//EN" "http://www.w3.org/Graphics/SVG/1.1/DTD/svg11.dtd">
<svg version="1.1" xmlns="http://www.w3.org/2000/svg" xmlns:xlink="http://www.w3.org/1999/xlink" x="0px" y="0px" width="519px"
	 height="225px" viewBox="0 0 519 225" enable-background="new 0 0 519 225" xml:space="preserve">
<g id="Layer_1_copy">
	
		<!-- <rect x="-125.583" y="-327.417" display="inline" fill-rule="evenodd" clip-rule="evenodd" fill="#0579B5" opacity="0.1" width="850.394" height="850.394"/> -->
	<polygon display="inline" fill-rule="evenodd" clip-rule="evenodd" fill="#FFFFFF" points="185.1,108.289 188.652,83.559 
		215.947,83.559 215.947,83.559 212.059,110.624 184.764,110.624 	"/>
	<path display="inline" fill-rule="evenodd" clip-rule="evenodd" fill="#FFFFFF" d="M215.947,83.559l-23.788-24.415l7.129-49.627
		c41.998,0,83.986-0.008,125.977-0.008l-5.662,39.422c-0.364,2.536-1.066,5.003-2.063,7.315c-0.836,1.936-1.884,3.774-3.119,5.461
		c0.52,1.273,0.937,2.606,1.242,3.987c0.393,1.776,0.597,3.599,0.597,5.446c0,0.558-0.024,1.16-0.075,1.807
		c-0.047,0.607-0.119,1.25-0.216,1.928l-1.61,11.21c-0.483,3.364-1.596,6.555-3.197,9.447c-1.658,2.998-3.845,5.683-6.398,7.917
		c-2.574,2.251-5.543,4.067-8.745,5.308c-3.105,1.203-6.419,1.868-9.798,1.868h-55.943l3.888-27.065h52.055
		c0.078,0,0.166-0.022,0.258-0.062c0.167-0.073,0.346-0.191,0.523-0.347c0.197-0.172,0.36-0.359,0.477-0.552
		c0.073-0.119,0.119-0.228,0.132-0.318l1.248-8.684h-53.261c1.296-9.023,2.592-18.042,3.888-27.065h52.055
		c0.078,0,0.165-0.022,0.258-0.062c0.168-0.072,0.345-0.191,0.523-0.347c0.196-0.172,0.36-0.36,0.477-0.552
		c0.073-0.12,0.119-0.228,0.132-0.319l1.247-8.684h-71.479L215.947,83.559L215.947,83.559z"/>
	<path display="inline" fill-rule="evenodd" clip-rule="evenodd" fill="#FFFFFF" d="M16.995,137.334h47.936l-2.428,13.516H28.821
		l-3.273,18.372h30.303l-2.323,13.515H23.225l-5.385,30.198H3.586L16.995,137.334L16.995,137.334z M95.974,206.177l-1.267,6.758
		h12.987l9.08-51.737h-13.832l-4.435,25.34c-0.422,2.182-1.021,4.206-1.795,6.071c-0.774,1.866-1.76,3.484-2.956,4.857
		c-1.197,1.373-2.604,2.446-4.224,3.221c-1.618,0.774-3.484,1.161-5.596,1.161c-2.675,0-4.681-0.739-6.019-2.217
		c-1.337-1.478-2.006-3.343-2.006-5.596c0-0.774,0.017-1.39,0.053-1.848c0.035-0.457,0.088-0.897,0.158-1.32l5.279-29.669H67.677
		l-5.491,30.514c-0.211,1.337-0.352,2.499-0.422,3.484c-0.07,0.985-0.105,1.971-0.105,2.956c0,2.252,0.352,4.382,1.056,6.388
		c0.704,2.006,1.76,3.748,3.168,5.227c1.408,1.478,3.132,2.657,5.174,3.537c2.041,0.88,4.399,1.32,7.074,1.32
		c3.59,0,6.863-0.739,9.819-2.217c2.956-1.478,5.35-3.555,7.18-6.23H95.974L95.974,206.177z M140.214,167.955h0.845
		c1.83-2.674,4.223-4.751,7.18-6.23c2.957-1.478,6.229-2.217,9.82-2.217c2.675,0,5.033,0.44,7.074,1.32
		c2.041,0.88,3.766,2.059,5.174,3.537c1.408,1.478,2.464,3.22,3.168,5.226c0.704,2.006,1.056,4.136,1.056,6.388
		c0,0.985-0.035,2.006-0.105,3.062c-0.071,1.056-0.211,2.182-0.422,3.379l-5.491,30.514h-13.726l5.279-29.67
		c0.07-0.352,0.123-0.827,0.158-1.426c0.035-0.598,0.053-1.179,0.053-1.742c0-2.252-0.669-4.118-2.006-5.596
		c-1.337-1.478-3.343-2.217-6.018-2.217c-2.112,0-3.977,0.387-5.596,1.161c-1.619,0.774-3.027,1.848-4.223,3.22
		c-1.197,1.373-2.182,2.992-2.956,4.857c-0.774,1.865-1.372,3.889-1.795,6.071l-4.435,25.341h-13.832l9.08-51.737h12.987
		L140.214,167.955L140.214,167.955z M202.616,214.624c-3.097,0-5.948-0.598-8.552-1.795c-2.604-1.197-4.857-2.886-6.757-5.068
		c-1.901-2.182-3.379-4.769-4.434-7.76c-1.056-2.992-1.584-6.248-1.584-9.767c0-4.083,0.704-7.972,2.111-11.667
		c1.408-3.695,3.414-6.951,6.019-9.767c2.604-2.816,5.684-5.068,9.239-6.757c3.555-1.689,7.514-2.535,11.879-2.535
		c3.449,0,6.599,0.757,9.45,2.27c2.851,1.514,4.874,3.396,6.071,5.649h0.845l0.317-7.391l4.012-22.701h13.726l-13.304,75.6h-12.881
		l1.056-6.23h-0.845c-1.408,2.041-3.431,3.871-6.071,5.491C210.271,213.814,206.839,214.624,202.616,214.624L202.616,214.624z
		 M210.957,172.284c-2.323,0-4.452,0.458-6.388,1.373c-1.936,0.915-3.608,2.147-5.015,3.696c-1.408,1.548-2.499,3.343-3.273,5.385
		s-1.161,4.189-1.161,6.441c0,3.872,1.161,6.951,3.484,9.239c2.323,2.287,5.385,3.432,9.186,3.432c2.041,0,4.012-0.422,5.913-1.267
		c1.901-0.845,3.572-2.006,5.015-3.484c1.443-1.478,2.604-3.273,3.484-5.385c0.88-2.112,1.32-4.435,1.32-6.969
		c0-3.801-1.162-6.828-3.484-9.081C217.714,173.41,214.688,172.284,210.957,172.284z"/>
	<path display="inline" fill-rule="evenodd" clip-rule="evenodd" fill="#FFFFFF" d="M258.365,137.334h25.868
		c3.168,0,5.983,0.493,8.447,1.479c2.464,0.986,4.558,2.323,6.282,4.012c1.725,1.689,3.027,3.66,3.907,5.913
		c0.88,2.253,1.32,4.61,1.32,7.074c0,2.393-0.37,4.558-1.109,6.493c-0.739,1.936-1.725,3.643-2.956,5.121
		c-1.232,1.478-2.657,2.728-4.277,3.748c-1.619,1.021-3.273,1.848-4.962,2.481l-0.106,0.422c3.027,1.619,5.456,3.678,7.285,6.177
		c1.83,2.499,2.745,5.684,2.745,9.555c0,3.308-0.704,6.37-2.111,9.186c-1.408,2.816-3.326,5.244-5.755,7.285
		c-2.428,2.042-5.279,3.66-8.552,4.857c-3.273,1.197-6.811,1.795-10.612,1.795h-28.825L258.365,137.334L258.365,137.334z
		 M279.905,169.75c2.042,0,3.942-0.264,5.702-0.792c1.76-0.528,3.291-1.32,4.593-2.376c1.302-1.056,2.323-2.358,3.062-3.907
		c0.74-1.548,1.109-3.344,1.109-5.385c0-2.886-0.933-5.385-2.798-7.497c-1.866-2.111-4.593-3.168-8.183-3.168H266.39l-4.118,23.124
		H279.905L279.905,169.75z M275.892,203.643c1.689,0,3.431-0.282,5.227-0.845c1.795-0.563,3.396-1.39,4.804-2.481
		c1.408-1.091,2.569-2.499,3.484-4.224c0.915-1.724,1.372-3.748,1.372-6.071c0-3.379-1.091-6.089-3.273-8.13
		c-2.182-2.041-5.139-3.062-8.869-3.062h-17.95l-4.329,24.813H275.892L275.892,203.643z M343.573,205.755h-0.422
		c-1.76,2.534-4.153,4.646-7.18,6.335c-3.027,1.689-6.476,2.534-10.348,2.534c-5.068,0-9.133-1.443-12.195-4.329
		c-3.062-2.886-4.593-6.758-4.593-11.614c0-1.056,0.053-2.253,0.158-3.59c0.106-1.338,0.299-2.71,0.581-4.118l5.279-29.775h9.714
		l-5.491,31.042c-0.281,1.408-0.422,2.816-0.422,4.224c0,3.167,0.968,5.508,2.904,7.021c1.936,1.513,4.523,2.27,7.761,2.27
		c2.112,0,4.1-0.422,5.966-1.267c1.865-0.845,3.519-1.989,4.963-3.432c1.443-1.443,2.657-3.132,3.643-5.068
		c0.986-1.935,1.654-3.995,2.006-6.177l5.068-28.614h9.714l-9.081,51.737h-9.291L343.573,205.755L343.573,205.755z M386.546,214.624
		c-3.379,0-6.458-0.616-9.239-1.848c-2.781-1.232-5.138-2.921-7.074-5.068c-1.936-2.147-3.449-4.681-4.54-7.602
		c-1.091-2.921-1.637-6.036-1.637-9.344c0-4.505,0.809-8.676,2.428-12.512c1.619-3.836,3.819-7.145,6.599-9.925
		c2.78-2.781,6.054-4.945,9.819-6.494c3.766-1.548,7.796-2.323,12.09-2.323c3.167,0,5.948,0.44,8.341,1.32
		c2.393,0.88,4.452,2.024,6.177,3.432c1.725,1.408,3.115,3.009,4.171,4.804c1.056,1.795,1.83,3.572,2.323,5.332l-9.08,3.484
		c-0.845-2.957-2.34-5.28-4.487-6.969c-2.147-1.689-5.016-2.534-8.605-2.534c-2.815,0-5.438,0.546-7.867,1.636
		c-2.428,1.091-4.522,2.605-6.282,4.54c-1.76,1.936-3.15,4.223-4.17,6.863c-1.021,2.64-1.531,5.508-1.531,8.605
		c0,2.112,0.317,4.135,0.95,6.071c0.633,1.936,1.549,3.608,2.745,5.016c1.197,1.408,2.71,2.534,4.541,3.379
		c1.83,0.845,3.907,1.267,6.23,1.267c3.308,0,6.282-0.88,8.922-2.64c2.64-1.76,4.875-4.153,6.705-7.18l7.813,3.695
		c-1.619,2.534-3.256,4.751-4.91,6.652c-1.654,1.901-3.484,3.467-5.49,4.699c-2.006,1.232-4.224,2.147-6.652,2.745
		C392.407,214.325,389.644,214.624,386.546,214.624L386.546,214.624z M432.899,183.159l25.341-21.962h13.304l-0.106,0.422
		l-23.757,20.061l15.732,30.831l-0.105,0.422h-11.404l-12.037-24.602l-9.291,7.919l-2.956,16.683h-9.714l13.304-75.6h9.714
		L432.899,183.159L432.899,183.159z M488.226,214.624c3.238,0,6.212-0.405,8.922-1.214c2.71-0.81,5.051-1.953,7.021-3.431
		c1.971-1.479,3.484-3.273,4.54-5.385c1.056-2.112,1.584-4.47,1.584-7.074c0-3.59-1.162-6.599-3.484-9.027
		c-2.323-2.428-5.596-4.241-9.819-5.438l-6.652-1.795c-2.605-0.704-4.435-1.619-5.491-2.745c-1.056-1.126-1.584-2.358-1.584-3.695
		c0-2.112,0.951-3.748,2.851-4.91c1.901-1.162,4.364-1.742,7.391-1.742c2.886,0,5.227,0.703,7.021,2.111
		c1.795,1.408,3.08,3.097,3.854,5.068l9.292-3.59c-1.197-3.589-3.52-6.529-6.969-8.816c-3.449-2.288-7.637-3.432-12.565-3.432
		c-2.886,0-5.596,0.405-8.13,1.215c-2.534,0.809-4.752,1.918-6.652,3.326c-1.901,1.408-3.414,3.097-4.54,5.068
		c-1.127,1.971-1.69,4.118-1.69,6.441c0,3.942,1.214,6.986,3.643,9.133c2.428,2.147,5.508,3.713,9.239,4.698l5.913,1.584
		c2.956,0.774,5.068,1.76,6.335,2.956c1.267,1.197,1.901,2.781,1.901,4.752c0,2.041-0.985,3.766-2.956,5.174
		c-1.971,1.408-4.646,2.112-8.025,2.112c-3.027,0-5.702-0.827-8.024-2.481c-2.323-1.654-3.836-4.101-4.54-7.339l-9.292,3.696
		c0.563,2.111,1.408,4.065,2.534,5.86c1.126,1.795,2.551,3.344,4.276,4.646c1.724,1.302,3.748,2.341,6.071,3.115
		C482.524,214.236,485.199,214.624,488.226,214.624z"/>
</g>
<g id="Layer_3">
</g>
<g id="Layer_2">
	<polygon fill-rule="evenodd" clip-rule="evenodd" fill="#FFFFFF" points="185.782,108.223 189.334,83.494 216.629,83.494 
		216.629,83.494 212.741,110.559 185.446,110.559 	"/>
	<path fill-rule="evenodd" clip-rule="evenodd" fill="#FFFFFF" d="M216.629,83.494l-23.788-24.415l7.129-49.627
		c41.998,0,83.986-0.008,125.977-0.008l-5.662,39.422c-0.364,2.536-1.066,5.003-2.063,7.315c-0.836,1.936-1.884,3.774-3.119,5.461
		c0.52,1.273,0.937,2.606,1.242,3.987c0.393,1.776,0.597,3.599,0.597,5.446c0,0.558-0.024,1.16-0.075,1.807
		c-0.047,0.607-0.119,1.25-0.216,1.928l-1.61,11.21c-0.483,3.364-1.596,6.555-3.197,9.447c-1.658,2.998-3.845,5.683-6.398,7.917
		c-2.574,2.251-5.543,4.067-8.745,5.308c-3.105,1.203-6.419,1.868-9.798,1.868H230.96l3.888-27.065h52.055
		c0.078,0,0.166-0.022,0.258-0.062c0.167-0.073,0.346-0.191,0.523-0.347c0.197-0.172,0.36-0.359,0.477-0.552
		c0.073-0.119,0.119-0.228,0.132-0.318l1.248-8.684h-53.261c1.296-9.023,2.592-18.042,3.888-27.065h52.055
		c0.078,0,0.165-0.022,0.258-0.062c0.168-0.072,0.345-0.191,0.523-0.347c0.196-0.172,0.36-0.36,0.477-0.552
		c0.073-0.12,0.119-0.228,0.132-0.319l1.247-8.684H223.38L216.629,83.494L216.629,83.494z"/>
	<path fill-rule="evenodd" clip-rule="evenodd" fill="#FFFFFF" d="M17.678,137.269h47.936l-2.428,13.516H29.503l-3.273,18.372
		h30.303l-2.323,13.515H23.907l-5.385,30.198H4.268L17.678,137.269L17.678,137.269z M96.656,206.111l-1.267,6.758h12.987
		l9.08-51.737h-13.832l-4.435,25.34c-0.422,2.182-1.021,4.206-1.795,6.071c-0.774,1.866-1.76,3.484-2.956,4.857
		c-1.197,1.373-2.604,2.446-4.224,3.221c-1.618,0.774-3.484,1.161-5.596,1.161c-2.675,0-4.681-0.739-6.019-2.217
		c-1.337-1.478-2.006-3.343-2.006-5.596c0-0.774,0.017-1.39,0.053-1.848c0.035-0.457,0.088-0.897,0.158-1.32l5.279-29.669H68.359
		l-5.491,30.514c-0.211,1.337-0.352,2.499-0.422,3.484c-0.07,0.985-0.105,1.971-0.105,2.956c0,2.252,0.352,4.382,1.056,6.388
		c0.704,2.006,1.76,3.748,3.168,5.227c1.408,1.478,3.132,2.657,5.174,3.537c2.041,0.88,4.399,1.32,7.074,1.32
		c3.59,0,6.863-0.739,9.819-2.217c2.956-1.478,5.35-3.555,7.18-6.23H96.656L96.656,206.111z M140.896,167.889h0.845
		c1.83-2.675,4.223-4.751,7.18-6.23c2.957-1.478,6.229-2.217,9.82-2.217c2.675,0,5.033,0.44,7.074,1.32
		c2.041,0.88,3.766,2.059,5.174,3.537c1.408,1.478,2.464,3.221,3.168,5.227c0.704,2.006,1.056,4.135,1.056,6.388
		c0,0.985-0.035,2.006-0.105,3.062c-0.071,1.056-0.211,2.182-0.422,3.379l-5.491,30.514h-13.726l5.279-29.67
		c0.07-0.352,0.123-0.827,0.158-1.426c0.035-0.598,0.053-1.179,0.053-1.742c0-2.252-0.669-4.118-2.006-5.596
		c-1.337-1.478-3.343-2.217-6.018-2.217c-2.112,0-3.977,0.387-5.596,1.161c-1.619,0.775-3.027,1.848-4.223,3.221
		c-1.197,1.373-2.182,2.992-2.956,4.857c-0.774,1.865-1.372,3.889-1.795,6.071l-4.435,25.341h-13.832l9.08-51.737h12.987
		L140.896,167.889L140.896,167.889z M203.298,214.559c-3.097,0-5.948-0.598-8.552-1.795c-2.604-1.197-4.857-2.886-6.757-5.068
		c-1.901-2.182-3.379-4.769-4.434-7.76c-1.056-2.992-1.584-6.248-1.584-9.767c0-4.083,0.704-7.972,2.111-11.667
		c1.408-3.696,3.414-6.951,6.019-9.767c2.604-2.816,5.684-5.068,9.239-6.757c3.555-1.689,7.514-2.535,11.879-2.535
		c3.449,0,6.599,0.757,9.45,2.27c2.851,1.514,4.874,3.396,6.071,5.649h0.845l0.317-7.391l4.012-22.701h13.726l-13.304,75.6h-12.881
		l1.056-6.23h-0.845c-1.408,2.041-3.431,3.871-6.071,5.491C210.953,213.749,207.521,214.559,203.298,214.559L203.298,214.559z
		 M211.639,172.218c-2.323,0-4.452,0.458-6.388,1.373c-1.936,0.915-3.608,2.147-5.015,3.696c-1.408,1.548-2.499,3.343-3.273,5.385
		s-1.161,4.189-1.161,6.441c0,3.872,1.161,6.951,3.484,9.239c2.323,2.288,5.385,3.432,9.186,3.432c2.041,0,4.012-0.422,5.913-1.267
		c1.901-0.845,3.572-2.006,5.015-3.484c1.443-1.478,2.604-3.273,3.484-5.385c0.88-2.112,1.32-4.435,1.32-6.969
		c0-3.801-1.162-6.828-3.484-9.081C218.397,173.345,215.37,172.218,211.639,172.218z"/>
	<path fill-rule="evenodd" clip-rule="evenodd" fill="#FFFFFF" d="M259.047,137.269h25.868c3.168,0,5.983,0.493,8.447,1.479
		c2.464,0.986,4.558,2.323,6.282,4.012c1.725,1.689,3.027,3.66,3.907,5.913c0.88,2.253,1.32,4.611,1.32,7.074
		c0,2.393-0.37,4.558-1.109,6.493c-0.739,1.936-1.725,3.643-2.956,5.121c-1.232,1.478-2.657,2.728-4.277,3.748
		c-1.619,1.021-3.273,1.848-4.962,2.481l-0.106,0.422c3.027,1.619,5.456,3.678,7.285,6.177c1.83,2.499,2.745,5.684,2.745,9.555
		c0,3.308-0.704,6.37-2.111,9.186c-1.408,2.816-3.326,5.244-5.755,7.285c-2.428,2.042-5.279,3.66-8.552,4.857
		c-3.273,1.197-6.811,1.795-10.612,1.795h-28.825L259.047,137.269L259.047,137.269z M280.587,169.685
		c2.042,0,3.942-0.264,5.702-0.792c1.76-0.528,3.291-1.32,4.593-2.376c1.302-1.056,2.323-2.358,3.062-3.907
		c0.74-1.548,1.109-3.344,1.109-5.385c0-2.886-0.933-5.385-2.798-7.497c-1.866-2.111-4.593-3.168-8.183-3.168h-16.999l-4.118,23.124
		H280.587L280.587,169.685z M276.575,203.578c1.689,0,3.431-0.282,5.227-0.845c1.795-0.563,3.396-1.39,4.804-2.481
		c1.408-1.091,2.569-2.499,3.484-4.224c0.915-1.724,1.372-3.748,1.372-6.071c0-3.379-1.091-6.089-3.273-8.13
		c-2.182-2.041-5.139-3.062-8.869-3.062h-17.95l-4.329,24.813H276.575L276.575,203.578z M344.255,205.689h-0.422
		c-1.76,2.534-4.153,4.646-7.18,6.335c-3.027,1.689-6.476,2.534-10.348,2.534c-5.068,0-9.133-1.443-12.195-4.329
		c-3.062-2.886-4.593-6.758-4.593-11.614c0-1.056,0.053-2.253,0.158-3.59c0.106-1.338,0.299-2.71,0.581-4.118l5.279-29.775h9.714
		l-5.491,31.042c-0.281,1.408-0.422,2.816-0.422,4.224c0,3.167,0.968,5.508,2.904,7.021c1.936,1.513,4.523,2.27,7.761,2.27
		c2.112,0,4.1-0.422,5.966-1.267c1.865-0.845,3.519-1.989,4.963-3.432c1.443-1.443,2.657-3.132,3.643-5.068
		c0.986-1.936,1.654-3.995,2.006-6.177l5.068-28.614h9.714l-9.081,51.737h-9.291L344.255,205.689L344.255,205.689z M387.229,214.559
		c-3.379,0-6.458-0.616-9.239-1.848c-2.781-1.232-5.138-2.921-7.074-5.068c-1.936-2.147-3.449-4.681-4.54-7.602
		c-1.091-2.921-1.637-6.036-1.637-9.344c0-4.505,0.809-8.676,2.428-12.512c1.619-3.836,3.819-7.145,6.599-9.925
		c2.78-2.781,6.054-4.945,9.819-6.494c3.766-1.548,7.796-2.323,12.09-2.323c3.167,0,5.948,0.44,8.341,1.32
		c2.393,0.88,4.452,2.024,6.177,3.432c1.725,1.408,3.115,3.009,4.171,4.804c1.056,1.795,1.83,3.572,2.323,5.332l-9.08,3.484
		c-0.845-2.956-2.34-5.279-4.487-6.969c-2.147-1.689-5.016-2.534-8.605-2.534c-2.815,0-5.438,0.546-7.867,1.636
		c-2.428,1.091-4.522,2.605-6.282,4.54c-1.76,1.936-3.15,4.223-4.17,6.863c-1.021,2.64-1.531,5.508-1.531,8.605
		c0,2.112,0.317,4.135,0.95,6.071c0.633,1.936,1.549,3.608,2.745,5.016c1.197,1.408,2.71,2.534,4.541,3.379
		c1.83,0.845,3.907,1.267,6.23,1.267c3.308,0,6.282-0.88,8.922-2.64c2.64-1.76,4.875-4.153,6.705-7.18l7.813,3.695
		c-1.619,2.534-3.256,4.751-4.91,6.652c-1.654,1.901-3.484,3.467-5.49,4.699c-2.006,1.232-4.224,2.147-6.652,2.745
		C393.089,214.259,390.326,214.559,387.229,214.559L387.229,214.559z M433.581,183.094l25.341-21.962h13.304l-0.106,0.422
		l-23.757,20.061l15.732,30.831l-0.105,0.422h-11.404l-12.037-24.602l-9.291,7.919l-2.956,16.683h-9.714l13.304-75.6h9.714
		L433.581,183.094L433.581,183.094z M488.908,214.559c3.238,0,6.212-0.405,8.922-1.214c2.71-0.81,5.051-1.953,7.021-3.431
		c1.971-1.479,3.484-3.273,4.54-5.385c1.056-2.112,1.584-4.47,1.584-7.074c0-3.59-1.162-6.599-3.484-9.027
		c-2.323-2.428-5.596-4.241-9.819-5.438l-6.652-1.795c-2.605-0.704-4.435-1.619-5.491-2.745c-1.056-1.126-1.584-2.358-1.584-3.695
		c0-2.112,0.951-3.748,2.851-4.91c1.901-1.162,4.364-1.742,7.391-1.742c2.886,0,5.227,0.704,7.021,2.112
		c1.795,1.408,3.08,3.097,3.854,5.068l9.292-3.59c-1.196-3.59-3.519-6.529-6.969-8.816c-3.449-2.288-7.637-3.432-12.565-3.432
		c-2.886,0-5.596,0.405-8.13,1.215c-2.534,0.809-4.752,1.918-6.652,3.326c-1.901,1.408-3.414,3.097-4.54,5.068
		c-1.127,1.971-1.69,4.118-1.69,6.441c0,3.942,1.214,6.986,3.643,9.133c2.428,2.147,5.508,3.713,9.239,4.698l5.913,1.584
		c2.956,0.774,5.068,1.76,6.335,2.956c1.267,1.197,1.901,2.781,1.901,4.752c0,2.041-0.985,3.766-2.956,5.174
		c-1.971,1.408-4.646,2.112-8.025,2.112c-3.027,0-5.702-0.827-8.024-2.481c-2.323-1.654-3.836-4.101-4.54-7.339l-9.292,3.696
		c0.563,2.111,1.408,4.065,2.534,5.86c1.126,1.795,2.551,3.344,4.276,4.646c1.724,1.302,3.748,2.341,6.071,3.115
		C483.207,214.171,485.881,214.559,488.908,214.559z"/>
</g>
</svg>
