<svg width="19" height="19" viewBox="0 0 19 19" fill="none" xmlns="http://www.w3.org/2000/svg">
<path d="M9.1635 0.843981L9.1636 0.843922C9.26559 0.78233 9.38192 0.75 9.50018 0.75C9.61844 0.75 9.73476 0.78233 9.83675 0.843922L9.83685 0.843981L17.9275 5.7282C17.9278 5.72834 17.928 5.72848 17.9282 5.72862C18.0254 5.78787 18.1064 5.87162 18.163 5.97222C18.2196 6.07288 18.2496 6.18681 18.25 6.30302C18.25 6.30327 18.25 6.30351 18.25 6.30376L18.25 16.8752C18.2496 17.2412 18.1049 17.5911 17.8491 17.8485C17.5934 18.1058 17.2477 18.2496 16.8881 18.25H13.3704C13.1975 18.25 13.0308 18.181 12.9071 18.0565C12.7833 17.932 12.713 17.7621 12.713 17.5839V13.6898C12.713 13.3046 12.5609 12.9342 12.2888 12.6604C12.0165 12.3865 11.6463 12.2318 11.2593 12.2318H7.74074C7.35371 12.2318 6.98346 12.3865 6.7112 12.6604C6.43909 12.9342 6.28704 13.3046 6.28704 13.6898V17.5839C6.28704 17.7621 6.21667 17.932 6.09287 18.0565L6.62482 18.5852L6.09286 18.0565C5.96922 18.181 5.8025 18.25 5.62963 18.25H2.11187C1.75227 18.2496 1.40658 18.1058 1.1509 17.8485C0.895142 17.5912 0.750448 17.2414 0.75 16.8755V6.30322C0.750362 6.18696 0.780455 6.07299 0.837077 5.97231C0.893666 5.87169 0.974708 5.78794 1.07199 5.72871C1.0722 5.72858 1.07242 5.72845 1.07263 5.72832L9.1635 0.843981Z" stroke="#0171AA" stroke-width="1.5"/>
</svg>
