<svg width="280" height="43" viewBox="0 0 280 43" fill="none" xmlns="http://www.w3.org/2000/svg">
<g clip-path="url(#clip0_27_12465)">
<path fill-rule="evenodd" clip-rule="evenodd" d="M0.141736 41.7023L1.64144 31.262H13.1644H13.1645L11.5229 42.6881H0L0.141736 41.7023Z" fill="white"/>
<path fill-rule="evenodd" clip-rule="evenodd" d="M13.1645 31.262L3.12201 20.9546L6.13172 0.00351248C23.8621 0.00351248 41.5884 0 59.3157 0L56.9252 16.6427C56.7715 17.7132 56.4752 18.7549 56.054 19.731C55.7012 20.5484 55.2589 21.3241 54.7372 22.0366C54.9567 22.5742 55.1328 23.1367 55.2617 23.7197C55.4274 24.4694 55.5139 25.2391 55.5139 26.0189C55.5139 26.2544 55.5036 26.5087 55.4824 26.7819C55.4626 27.0384 55.4321 27.3096 55.3911 27.5957L54.7113 32.3285C54.5072 33.7487 54.0373 35.0957 53.3617 36.3168C52.6618 37.5823 51.7386 38.7161 50.6605 39.6589C49.5739 40.6091 48.3205 41.3759 46.9686 41.8997C45.6577 42.4075 44.2585 42.6881 42.8321 42.6881H19.2145L20.856 31.2619H42.8321C42.865 31.2619 42.9021 31.2525 42.941 31.2356C43.0117 31.205 43.087 31.1549 43.1619 31.0892C43.2449 31.0168 43.3137 30.9375 43.3631 30.8561C43.3938 30.8058 43.4133 30.7598 43.4189 30.7216L43.9456 27.0555H21.4603C22.0075 23.2464 22.5544 19.4388 23.1016 15.6294H45.078C45.1107 15.6294 45.1477 15.62 45.1868 15.603C45.2575 15.5724 45.3326 15.5223 45.4076 15.4567C45.4905 15.3842 45.5594 15.3049 45.6089 15.2236C45.6396 15.173 45.6591 15.1273 45.6645 15.0891L46.1911 11.4229H16.0145L13.1645 31.2619H13.1645V31.262Z" fill="white"/>
<path fill-rule="evenodd" clip-rule="evenodd" d="M69.3562 7.94781H89.5935L88.5683 13.6537H74.3487L72.9669 21.4097H85.7601L84.7794 27.1154H71.9862L69.7128 39.8641H63.6951L69.3562 7.94781ZM102.699 37.0111L102.164 39.8641H107.647L111.48 18.0221H105.641L103.769 28.7201C103.59 29.6414 103.338 30.4958 103.011 31.2832C102.684 32.0708 102.268 32.7542 101.763 33.3336C101.257 33.9132 100.663 34.3664 99.9795 34.6933C99.2962 35.0201 98.5085 35.1836 97.6171 35.1836C96.4878 35.1836 95.6408 34.8716 95.0762 34.2474C94.5117 33.6235 94.2294 32.836 94.2294 31.885C94.2294 31.5581 94.2367 31.2981 94.2517 31.1049C94.2665 30.9118 94.2888 30.7261 94.3185 30.5477L96.5472 18.0221H90.7525L88.4345 30.9044C88.3454 31.469 88.2858 31.9593 88.2562 32.3754C88.2265 32.7914 88.2117 33.2074 88.2117 33.6235C88.2117 34.5744 88.3601 35.4733 88.6574 36.3202C88.9546 37.1671 89.4005 37.9026 89.9947 38.5267C90.589 39.1508 91.3171 39.6485 92.1789 40.0201C93.0407 40.3916 94.0362 40.5773 95.1655 40.5773C96.6811 40.5773 98.0628 40.2653 99.311 39.6411C100.559 39.017 101.569 38.1404 102.342 37.0111H102.699ZM121.376 20.8748H121.732C122.505 19.7457 123.515 18.869 124.764 18.2448C126.012 17.6208 127.393 17.3087 128.909 17.3087C130.038 17.3087 131.034 17.4946 131.896 17.8659C132.757 18.2375 133.485 18.7352 134.08 19.3593C134.674 19.9834 135.12 20.7189 135.417 21.5658C135.714 22.4127 135.863 23.3116 135.863 24.2627C135.863 24.6786 135.848 25.1095 135.818 25.5554C135.789 26.001 135.729 26.4765 135.64 26.9817L133.322 39.8641H127.527L129.756 27.3383C129.786 27.1897 129.808 26.9891 129.823 26.7365C129.838 26.4839 129.845 26.2388 129.845 26.001C129.845 25.0501 129.563 24.2627 128.998 23.6385C128.434 23.0144 127.587 22.7024 126.457 22.7024C125.566 22.7024 124.778 22.8659 124.095 23.1927C123.411 23.5197 122.817 23.9728 122.312 24.5523C121.807 25.1318 121.391 25.8153 121.064 26.6028C120.737 27.3903 120.484 28.2447 120.306 29.166L118.434 39.8641H112.594L116.428 18.0221H121.911L121.376 20.8748ZM147.72 40.5773C146.412 40.5773 145.209 40.3247 144.109 39.8194C143.01 39.3143 142.059 38.6011 141.257 37.6798C140.454 36.7586 139.83 35.6665 139.384 34.4036C138.938 33.1406 138.716 31.766 138.716 30.2803C138.716 28.5567 139.013 26.9148 139.607 25.3547C140.201 23.7945 141.049 22.4201 142.148 21.2314C143.247 20.0427 144.548 19.0918 146.048 18.3787C147.549 17.6655 149.221 17.3087 151.063 17.3087C152.519 17.3087 153.849 17.6282 155.053 18.2671C156.256 18.9062 157.111 19.7011 157.616 20.652H157.972L158.106 17.5316L159.8 7.94781H165.595L159.978 39.8641H154.54L154.986 37.2341H154.629C154.035 38.0958 153.181 38.8684 152.066 39.5521C150.952 40.2354 149.503 40.5773 147.72 40.5773ZM151.242 22.7024C150.261 22.7024 149.362 22.8957 148.545 23.282C147.727 23.6683 147.022 24.1884 146.427 24.8421C145.833 25.4958 145.372 26.2536 145.045 27.1154C144.718 27.9771 144.555 28.8836 144.555 29.8344C144.555 31.469 145.045 32.7691 146.026 33.7349C147.007 34.7006 148.3 35.1836 149.904 35.1836C150.766 35.1836 151.598 35.0053 152.4 34.6487C153.203 34.2921 153.909 33.8018 154.518 33.1777C155.127 32.5537 155.617 31.7958 155.989 30.9044C156.36 30.0127 156.546 29.0322 156.546 27.9624C156.546 26.3576 156.056 25.0798 155.075 24.1288C154.094 23.178 152.816 22.7024 151.242 22.7024Z" fill="white"/>
<path fill-rule="evenodd" clip-rule="evenodd" d="M171.256 7.94781H182.177C183.514 7.94781 184.703 8.15603 185.743 8.572C186.783 8.98809 187.667 9.5527 188.395 10.2658C189.123 10.9791 189.673 11.8112 190.044 12.7621C190.416 13.7131 190.602 14.7085 190.602 15.7487C190.602 16.7591 190.446 17.6729 190.134 18.49C189.822 19.3072 189.406 20.0279 188.886 20.652C188.365 21.2761 187.764 21.8036 187.08 22.2343C186.397 22.6653 185.698 23.0144 184.985 23.282L184.94 23.4602C186.218 24.1437 187.244 25.0129 188.016 26.0679C188.789 27.1228 189.175 28.4674 189.175 30.102C189.175 31.4987 188.878 32.7914 188.284 33.9801C187.689 35.1687 186.88 36.194 185.854 37.0557C184.829 37.9176 183.626 38.601 182.244 39.1063C180.862 39.6114 179.368 39.8641 177.764 39.8641H165.595L171.256 7.94781ZM180.349 21.6327C181.211 21.6327 182.013 21.5213 182.756 21.2983C183.499 21.0755 184.146 20.7411 184.695 20.2954C185.245 19.8497 185.676 19.2998 185.988 18.646C186.3 17.9924 186.456 17.2345 186.456 16.3728C186.456 15.1544 186.062 14.0994 185.275 13.2078C184.487 12.3164 183.336 11.8705 181.82 11.8705H174.644L172.905 21.6327H180.349ZM178.655 35.9414C179.368 35.9414 180.104 35.8224 180.862 35.5848C181.62 35.3471 182.296 34.9979 182.89 34.5373C183.484 34.0767 183.975 33.4822 184.361 32.7542C184.747 32.0262 184.94 31.1717 184.94 30.191C184.94 28.7647 184.48 27.6206 183.559 26.7588C182.637 25.897 181.389 25.4661 179.814 25.4661H172.236L170.409 35.9414H178.655ZM207.228 36.8329H207.05C206.307 37.9026 205.297 38.7943 204.019 39.5075C202.741 40.2207 201.285 40.5773 199.65 40.5773C197.511 40.5773 195.795 39.968 194.502 38.7497C193.209 37.5313 192.563 35.8967 192.563 33.8464C192.563 33.4006 192.585 32.8954 192.63 32.3308C192.674 31.766 192.756 31.1867 192.875 30.5923L195.104 18.0221H199.205L196.887 31.1272C196.768 31.7217 196.708 32.3159 196.708 32.9103C196.708 34.2474 197.117 35.2355 197.934 35.8746C198.752 36.5135 199.844 36.8329 201.211 36.8329C202.102 36.8329 202.942 36.6546 203.729 36.298C204.517 35.9414 205.215 35.4585 205.824 34.8492C206.434 34.2401 206.946 33.5269 207.362 32.7096C207.778 31.8925 208.06 31.0231 208.209 30.102L210.349 18.0221H214.45L210.616 39.8641H206.693L207.228 36.8329ZM225.37 40.5773C223.944 40.5773 222.644 40.3173 221.47 39.7971C220.296 39.2772 219.301 38.5639 218.484 37.6576C217.666 36.7512 217.028 35.6813 216.567 34.4481C216.106 33.2149 215.876 31.8998 215.876 30.5031C215.876 28.6013 216.218 26.8405 216.901 25.2209C217.585 23.6014 218.513 22.2046 219.687 21.0308C220.861 19.857 222.243 18.9432 223.833 18.2894C225.423 17.6357 227.124 17.3087 228.937 17.3087C230.274 17.3087 231.448 17.4946 232.458 17.8659C233.468 18.2375 234.338 18.7204 235.066 19.3148C235.794 19.909 236.381 20.5852 236.826 21.3429C237.272 22.1006 237.599 22.851 237.807 23.594L233.974 25.0649C233.617 23.8168 232.986 22.8361 232.079 22.1229C231.173 21.4097 229.962 21.0531 228.446 21.0531C227.258 21.0531 226.151 21.2834 225.125 21.744C224.1 22.2046 223.216 22.8436 222.473 23.6608C221.73 24.4779 221.143 25.4438 220.713 26.5582C220.282 27.6726 220.066 28.8836 220.066 30.191C220.066 31.0827 220.2 31.9369 220.467 32.7542C220.735 33.5715 221.121 34.2773 221.626 34.8716C222.131 35.4659 222.77 35.9414 223.543 36.298C224.316 36.6546 225.192 36.8329 226.173 36.8329C227.57 36.8329 228.825 36.4614 229.94 35.7184C231.054 34.9756 231.997 33.9651 232.77 32.6874L236.069 34.2474C235.385 35.3174 234.694 36.2533 233.996 37.0557C233.298 37.8581 232.525 38.5193 231.678 39.0394C230.831 39.5595 229.895 39.9458 228.87 40.1983C227.845 40.4509 226.678 40.5773 225.37 40.5773ZM244.939 27.2937L255.637 18.0221H261.254L261.209 18.2004L251.18 26.6697L257.821 39.6857L257.777 39.8641H252.963L247.881 29.4779L243.959 32.821L242.71 39.8641H238.609L244.226 7.94781H248.327L244.939 27.2937ZM268.297 40.5773C269.664 40.5773 270.919 40.4064 272.063 40.0646C273.208 39.7228 274.196 39.24 275.028 38.616C275.86 37.9918 276.499 37.2341 276.944 36.3426C277.39 35.451 277.613 34.4554 277.613 33.356C277.613 31.8403 277.123 30.5699 276.142 29.5448C275.161 28.5196 273.78 27.7543 271.997 27.249L269.188 26.4914C268.089 26.1942 267.316 25.8079 266.87 25.3324C266.425 24.857 266.202 24.3369 266.202 23.7723C266.202 22.8807 266.603 22.1898 267.405 21.6995C268.208 21.2091 269.248 20.9641 270.526 20.9641C271.744 20.9641 272.732 21.2611 273.49 21.8555C274.248 22.4498 274.79 23.163 275.117 23.9951L279.039 22.4795C278.534 20.9641 277.554 19.7233 276.097 18.7576C274.641 17.7916 272.873 17.3087 270.793 17.3087C269.575 17.3087 268.431 17.4796 267.361 17.8215C266.291 18.1632 265.355 18.6312 264.552 19.2255C263.75 19.8198 263.111 20.5331 262.636 21.3651C262.16 22.1973 261.922 23.1036 261.922 24.0843C261.922 25.7484 262.435 27.0336 263.46 27.9402C264.486 28.8464 265.786 29.5077 267.361 29.9237L269.857 30.5923C271.105 30.9191 271.997 31.3353 272.531 31.8403C273.066 32.3456 273.334 33.0143 273.334 33.8464C273.334 34.708 272.918 35.4361 272.086 36.0305C271.254 36.6249 270.124 36.9221 268.698 36.9221C267.42 36.9221 266.291 36.5728 265.31 35.8746C264.33 35.1762 263.691 34.1434 263.393 32.7764L259.471 34.3367C259.709 35.2281 260.065 36.0529 260.541 36.8105C261.016 37.5684 261.618 38.2222 262.346 38.7719C263.074 39.3216 263.928 39.7601 264.909 40.087C265.89 40.4137 267.019 40.5773 268.297 40.5773Z" fill="white"/>
</g>
<defs>
<clipPath id="clip0_27_12465">
<rect width="279.039" height="42.6881" fill="white"/>
</clipPath>
</defs>
</svg>
