<svg width="96" height="96" viewBox="0 0 96 96" fill="none" xmlns="http://www.w3.org/2000/svg">
<circle cx="48" cy="48" r="48" fill="#F6F8FC"/>
<g clip-path="url(#clip0_29_12675)">
<path d="M61 58.4792C61 59.9931 60.5768 61.2917 59.7305 62.375C58.8841 63.4583 57.8651 64 56.6734 64H39.3266C38.1349 64 37.1159 63.4583 36.2695 62.375C35.4232 61.2917 35 59.9931 35 58.4792C35 57.2986 35.0576 56.184 35.1727 55.1354C35.2878 54.0868 35.501 53.0312 35.8125 51.9688C36.124 50.9062 36.5201 49.9965 37.0008 49.2396C37.4815 48.4826 38.118 47.8646 38.9102 47.3854C39.7023 46.9062 40.613 46.6667 41.6422 46.6667C43.4161 48.4444 45.5354 49.3333 48 49.3333C50.4646 49.3333 52.5839 48.4444 54.3578 46.6667C55.387 46.6667 56.2977 46.9062 57.0898 47.3854C57.882 47.8646 58.5185 48.4826 58.9992 49.2396C59.4799 49.9965 59.876 50.9062 60.1875 51.9688C60.499 53.0312 60.7122 54.0868 60.8273 55.1354C60.9424 56.184 61 57.2986 61 58.4792ZM55.8 40C55.8 42.2083 55.0383 44.0938 53.5148 45.6562C51.9914 47.2188 50.1531 48 48 48C45.8469 48 44.0086 47.2188 42.4852 45.6562C40.9617 44.0938 40.2 42.2083 40.2 40C40.2 37.7917 40.9617 35.9062 42.4852 34.3438C44.0086 32.7812 45.8469 32 48 32C50.1531 32 51.9914 32.7812 53.5148 34.3438C55.0383 35.9062 55.8 37.7917 55.8 40Z" fill="#BCCDEE"/>
</g>
<defs>
<clipPath id="clip0_29_12675">
<rect width="26" height="32" fill="white" transform="translate(35 32)"/>
</clipPath>
</defs>
</svg>
